# xmcd
#
# Track frame offsets:
#	150
#	17172
#	31790
#	45385
#	61465
#	79420
#	94420
#	113615
#	129152
#	145705
#	171482
#
# Disc length: 2360 seconds
#
# Revision: 5
# Processed by: cddbd v1.5.2PL0 Copyright (c) Steve Scherf et al.
# Submitted via: EasyCDDAExtractor 15.2.0.1
#
DISCID=8b09360b
DTITLE=Gotta Get It Hits - Gotta Get It Hits - Country
DYEAR=2000
DGENRE=Country
TTITLE0=Vince Gill - One
TTITLE1=Martina McBride - Safe In The Arms Of Love
TTITLE2=Alabama - How Do You Fall In Love
TTITLE3=Terri Clark - You're Easy On The Eyes
TTITLE4=Jennifer Day - The Fun Of Your Love
TTITLE5=Brad Paisley - Me Neither
TTITLE6=Lee Ann Womack - A Little Past Little Rock
TTITLE7=Rebecca Lynn Howard - Out Here In The Water
TTITLE8=Mark Wills - Almost Doesn't Count
TTITLE9=Mindy McCready - Guys Do It All The Time
TTITLE10=Various Artist - Data
EXTD=YEAR: 2000
EXTT0=
EXTT1=
EXTT2=
EXTT3=
EXTT4=
EXTT5=
EXTT6=
EXTT7=
EXTT8=
EXTT9=
EXTT10=
PLAYORDER=
